<?xml version="1.0" encoding="utf-8" ?><svg xmlns="http://www.w3.org/2000/svg" xmlns:xlink="http://www.w3.org/1999/xlink" width="1024" height="1024" viewBox="0 0 1024 1024"><path fill="white" d="M0 0L1024 0L1024 1024L0 1024L0 0Z"/><path fill="#F2CE6A" d="M511.053 403.247C513.469 405.602 533.55 439.72 536.661 444.809L607.623 560.49L510.875 560.479L415.079 560.457C418.644 555.85 425.054 544.783 428.302 539.52L455.29 495.01C473.627 464.292 492.864 434.38 511.053 403.247Z"/><defs><linearGradient id="gradient_0" gradientUnits="userSpaceOnUse" x1="743.237" y1="448.85153" x2="585.17212" y2="512.25812"><stop offset="0" stop-color="#C8A54A"/><stop offset="1" stop-color="#F6D269"/></linearGradient></defs><path fill="url(#gradient_0)" d="M559.071 450.516L745.512 450.642L745.533 520.449L601.807 520.444C589.892 498.57 572.446 471.83 559.071 450.516Z"/><defs><linearGradient id="gradient_1" gradientUnits="userSpaceOnUse" x1="282.45038" y1="443.26285" x2="431.01953" y2="514.51385"><stop offset="0" stop-color="#CAA54B"/><stop offset="1" stop-color="#F4D068"/></linearGradient></defs><path fill="url(#gradient_1)" d="M277.79 450.534L399.059 450.62C419.815 450.62 442.738 450.061 463.316 450.741C454.041 465.327 445.471 480.179 436.187 494.787C431.596 503.147 425.286 511.745 420.538 520.565L277.813 520.432L277.79 450.534Z"/></svg>